<svg width="136" height="56" viewBox="0 0 136 56" fill="none" xmlns="http://www.w3.org/2000/svg">
<g clip-path="url(#clip0_1101_2457)">
<path d="M0 24.3355V29.26C1.69536 29.2588 3.37431 29.5895 4.94079 30.2331C6.50727 30.8766 7.93052 31.8205 9.12912 33.0106C10.3274 34.2003 11.2777 35.6128 11.9257 37.1672C12.5737 38.7217 12.9067 40.3877 12.9056 42.07H17.8633C17.8588 37.3685 15.9755 32.8608 12.6265 29.536C9.27759 26.2112 4.7366 24.3409 0 24.3355H0Z" fill="white"/>
<path d="M24.7934 15.47H16.9365C20.9112 17.9701 24.279 21.3126 26.7984 25.2574V17.4587C26.798 16.9311 26.5866 16.4253 26.2106 16.0524C25.8347 15.6795 25.3249 15.47 24.7934 15.47Z" fill="white"/>
<path d="M4.93657 15.47H0V19.9038C5.92089 19.9099 11.5975 22.2472 15.7843 26.4028C19.9711 30.5585 22.326 36.193 22.3323 42.07H26.7985V37.17C25.7887 31.7846 23.1596 26.8289 19.2572 22.9555C15.3548 19.082 10.3622 16.4723 4.93657 15.47Z" fill="white"/>
<path d="M38.9502 18.3981H35.8035V34.1411H38.9502V18.3981Z" fill="white"/>
<path d="M50.5201 25.2189C49.9963 24.7462 49.3831 24.3815 48.7162 24.1458C47.2835 23.6465 45.7222 23.6465 44.2895 24.1458C43.6222 24.3813 43.0088 24.7461 42.4848 25.2189C41.9709 25.6892 41.5604 26.2597 41.2789 26.8947C40.9879 27.5875 40.8381 28.3306 40.8381 29.0812C40.8381 29.8317 40.9879 30.5748 41.2789 31.2676C41.5593 31.9045 41.97 32.4765 42.4848 32.9476C43.0079 33.4208 43.621 33.7854 44.2881 34.02C45.7206 34.5203 47.2822 34.5203 48.7148 34.02C49.382 33.7854 49.9954 33.4208 50.5187 32.9476C51.0333 32.4764 51.444 31.9043 51.7246 31.2676C52.0156 30.5748 52.1654 29.8317 52.1654 29.0812C52.1654 28.3306 52.0156 27.5875 51.7246 26.8947C51.4434 26.2599 51.0334 25.6894 50.5201 25.2189ZM48.3593 30.9351C47.8498 31.3907 47.1883 31.6428 46.5025 31.6428C45.8167 31.6428 45.1552 31.3907 44.6456 30.9351C44.2173 30.4103 43.9836 29.7555 43.9836 29.0801C43.9836 28.4047 44.2173 27.7499 44.6456 27.2251C45.1552 26.7695 45.8167 26.5174 46.5025 26.5174C47.1883 26.5174 47.8498 26.7695 48.3593 27.2251C48.7876 27.7499 49.0213 28.4047 49.0213 29.0801C49.0213 29.7555 48.7876 30.4103 48.3593 30.9351Z" fill="white"/>
<path d="M61.8172 25.354H61.7778C61.6322 25.1512 61.4632 24.9661 61.2742 24.8024C61.0453 24.6014 60.7917 24.4297 60.5196 24.2914C59.8318 23.9411 59.0684 23.7626 58.2954 23.7713C57.618 23.7595 56.9481 23.9134 56.3447 24.2193C55.7825 24.5083 55.2861 24.9088 54.8863 25.396C54.4786 25.8982 54.1658 26.4695 53.9632 27.0823C53.7477 27.7136 53.6378 28.3757 53.6381 29.0423C53.6301 29.7578 53.751 30.469 53.9949 31.1423C54.2159 31.7568 54.5605 32.3202 55.0076 32.7985C55.4531 33.2665 55.9937 33.6352 56.5937 33.88C57.246 34.1439 57.9451 34.2748 58.6494 34.265C59.1704 34.2561 59.6854 34.1539 60.1698 33.9633C60.7131 33.7588 61.1837 33.4002 61.5232 32.9322H61.5655V33.9122C61.5773 34.2391 61.523 34.565 61.4059 34.8707C61.2888 35.1764 61.1112 35.4558 60.8835 35.6923C60.5947 35.9459 60.257 36.1388 59.891 36.2591C59.5249 36.3794 59.138 36.4247 58.7538 36.3923C58.1445 36.3991 57.5407 36.2784 56.9815 36.0381C56.4252 35.7914 55.9061 35.4691 55.4392 35.0805L53.698 37.66C54.4097 38.229 55.2416 38.6312 56.1317 38.8367C57.0125 39.0377 57.9135 39.1389 58.8172 39.1384C60.8031 39.1384 62.282 38.6421 63.2538 37.6495C64.2256 36.6569 64.7117 35.2028 64.7122 33.2871V24.0212H61.8208L61.8172 25.354ZM61.6283 29.9663C61.5041 30.2626 61.3222 30.5317 61.093 30.758C60.8596 30.9888 60.5861 31.1757 60.2855 31.3096C59.9734 31.4472 59.6358 31.5182 59.2943 31.5182C58.9529 31.5182 58.6152 31.4472 58.3031 31.3096C58.0066 31.1738 57.7366 30.9871 57.5055 30.758C57.2753 30.5298 57.0927 30.2587 56.9681 29.9603C56.8435 29.662 56.7793 29.3422 56.7793 29.0192C56.7793 28.6962 56.8435 28.3764 56.9681 28.0781C57.0927 27.7797 57.2753 27.5087 57.5055 27.2804C57.7367 27.0513 58.0067 26.8644 58.3031 26.7281C58.6153 26.591 58.9529 26.5202 59.2943 26.5202C59.6357 26.5202 59.9733 26.591 60.2855 26.7281C60.5859 26.8625 60.8595 27.0496 61.093 27.2804C61.4392 27.6258 61.6747 28.0651 61.7699 28.543C61.8652 29.0209 61.8159 29.5161 61.6283 29.9663Z" fill="white"/>
<path d="M76.5338 25.2189C76.0099 24.7462 75.3968 24.3815 74.7298 24.1458C73.2972 23.6465 71.7358 23.6465 70.3031 24.1458C69.6359 24.3813 69.0225 24.7461 68.4985 25.2189C67.9846 25.6892 67.574 26.2597 67.2925 26.8947C67.0016 27.5875 66.8518 28.3306 66.8518 29.0812C66.8518 29.8317 67.0016 30.5748 67.2925 31.2676C67.573 31.9045 67.9836 32.4765 68.4985 32.9476C69.022 33.4209 69.6356 33.7855 70.3031 34.02C71.7357 34.5203 73.2973 34.5203 74.7298 34.02C75.3971 33.7854 76.0104 33.4208 76.5338 32.9476C77.0486 32.4765 77.4593 31.9045 77.7397 31.2676C78.0307 30.5748 78.1805 29.8317 78.1805 29.0812C78.1805 28.3306 78.0307 27.5875 77.7397 26.8947C77.4582 26.2597 77.0477 25.6892 76.5338 25.2189ZM74.373 30.9351C73.8634 31.3907 73.2019 31.6428 72.5161 31.6428C71.8303 31.6428 71.1688 31.3907 70.6593 30.9351C70.231 30.4103 69.9973 29.7555 69.9973 29.0801C69.9973 28.4047 70.231 27.7499 70.6593 27.2251C71.1688 26.7695 71.8303 26.5174 72.5161 26.5174C73.2019 26.5174 73.8634 26.7695 74.373 27.2251C74.8013 27.7499 75.035 28.4047 75.035 29.0801C75.035 29.7555 74.8013 30.4103 74.373 30.9351Z" fill="white"/>
<path d="M82.3548 24.0912H80.6672V34.1411H82.3548V24.0912Z" fill="white"/>
<path d="M81.5114 18.9378C81.3477 18.9347 81.1852 18.9656 81.0343 19.0284C80.8833 19.0912 80.7473 19.1845 80.6348 19.3025C80.4632 19.4742 80.3466 19.6925 80.2998 19.9299C80.253 20.1672 80.2781 20.413 80.3718 20.6363C80.4655 20.8595 80.6237 21.0502 80.8264 21.1844C81.0291 21.3186 81.2673 21.3901 81.511 21.3901C81.7547 21.3901 81.9929 21.3186 82.1956 21.1844C82.3983 21.0502 82.5565 20.8595 82.6502 20.6363C82.7439 20.413 82.769 20.1672 82.7222 19.9299C82.6754 19.6925 82.5588 19.4742 82.3872 19.3025C82.2749 19.1845 82.139 19.0911 81.9881 19.0283C81.8373 18.9655 81.6749 18.9346 81.5114 18.9378Z" fill="white"/>
<path d="M94.8379 25.34C94.3632 24.8589 93.7921 24.4819 93.1616 24.2333C92.4696 23.9625 91.7312 23.8278 90.9874 23.8364C90.2867 23.8284 89.5939 23.983 88.9641 24.2879C88.3438 24.5941 87.7947 25.0254 87.352 25.5542H87.3068V24.0912H85.6213V39.0376H87.3068V32.3596H87.3498C87.7081 32.9721 88.2302 33.4741 88.8583 33.81C89.5875 34.2153 90.4128 34.4193 91.2483 34.4008C91.9324 34.4051 92.61 34.2698 93.2392 34.0032C93.8467 33.7474 94.395 33.3711 94.8506 32.8972C95.3132 32.4129 95.677 31.8443 95.9218 31.2228C96.4409 29.8668 96.4409 28.369 95.9218 27.013C95.6749 26.39 95.3065 25.8215 94.8379 25.34ZM94.2427 30.59C94.0854 31.0276 93.8393 31.4285 93.5197 31.7679C93.2001 32.1073 92.8137 32.378 92.3844 32.5633C91.4354 32.9491 90.3716 32.9491 89.4225 32.5633C88.9926 32.378 88.6057 32.1071 88.2857 31.7673C87.9657 31.4275 87.7194 31.0261 87.5621 30.5879C87.2308 29.6355 87.2308 28.6003 87.5621 27.6479C87.7194 27.2097 87.9657 26.8083 88.2857 26.4685C88.6057 26.1287 88.9926 25.8578 89.4225 25.6725C90.3716 25.2867 91.4354 25.2867 92.3844 25.6725C92.8143 25.8578 93.2012 26.1287 93.5212 26.4685C93.8412 26.8083 94.0875 27.2097 94.2448 27.6479C94.5761 28.6003 94.5761 29.6355 94.2448 30.5879L94.2427 30.59Z" fill="white"/>
<path d="M104.812 29.12C104.491 28.882 104.134 28.6971 103.754 28.5726C103.337 28.4328 102.91 28.3215 102.477 28.2394C102.153 28.1844 101.832 28.1129 101.515 28.0252C101.232 27.949 100.957 27.8483 100.693 27.7242C100.481 27.6287 100.289 27.4938 100.128 27.3266C99.9916 27.1771 99.9182 26.9811 99.9231 26.7792C99.9198 26.5614 99.9841 26.3478 100.107 26.1674C100.228 25.9892 100.387 25.8391 100.572 25.7271C100.77 25.6083 100.986 25.5214 101.211 25.4695C101.442 25.4128 101.678 25.3839 101.916 25.3834C102.368 25.3694 102.815 25.4851 103.203 25.7166C103.553 25.9353 103.846 26.2332 104.058 26.586L105.464 25.6627C105.152 25.0524 104.646 24.5615 104.025 24.2662C103.398 23.9774 102.715 23.8308 102.024 23.8371C101.556 23.836 101.09 23.901 100.64 24.0303C100.208 24.1524 99.7992 24.3414 99.4273 24.5903C99.0718 24.8286 98.7758 25.1444 98.562 25.5136C98.3407 25.9068 98.2287 26.3513 98.2376 26.8016C98.22 27.2424 98.3208 27.6799 98.5296 28.0693C98.7201 28.395 98.986 28.6709 99.3053 28.8743C99.6579 29.095 100.04 29.2649 100.441 29.379C100.874 29.5078 101.328 29.6224 101.804 29.7227C102.079 29.7801 102.345 29.8445 102.604 29.9159C102.847 29.9806 103.08 30.0781 103.297 30.2057C103.488 30.318 103.653 30.4678 103.784 30.646C103.914 30.8433 103.978 31.0761 103.968 31.3117C103.975 31.5592 103.907 31.8032 103.773 32.0117C103.639 32.2093 103.461 32.3744 103.254 32.4947C103.03 32.6274 102.785 32.7221 102.529 32.7747C102.269 32.8313 102.005 32.8601 101.739 32.8608C101.213 32.881 100.692 32.7544 100.236 32.4954C99.8153 32.2299 99.4455 31.893 99.1431 31.5L97.8032 32.5311C98.218 33.1705 98.8068 33.6801 99.5014 34.0011C100.213 34.2816 100.975 34.4168 101.74 34.3987C102.239 34.3991 102.736 34.3416 103.221 34.2272C103.683 34.1213 104.122 33.936 104.52 33.6798C104.899 33.4298 105.213 33.0939 105.437 32.6998C105.679 32.2525 105.798 31.75 105.784 31.2424C105.797 30.806 105.708 30.3725 105.524 29.9761C105.356 29.64 105.112 29.347 104.812 29.12Z" fill="white"/>
<path d="M116.97 31.7576V24.0912H115.282V28.9912C115.288 29.5195 115.226 30.0463 115.098 30.5592C114.99 30.9989 114.799 31.4141 114.534 31.7828C114.283 32.1256 113.948 32.399 113.56 32.5773C113.115 32.7737 112.631 32.8694 112.143 32.8573C111.814 32.8838 111.483 32.8313 111.178 32.7042C110.873 32.5772 110.603 32.3793 110.391 32.1272C109.986 31.5417 109.787 30.8394 109.827 30.1301V24.0912H108.139V30.2974C108.134 30.86 108.21 31.4204 108.366 31.9613C108.502 32.4409 108.743 32.8847 109.071 33.2612C109.4 33.6292 109.811 33.9167 110.27 34.1012C110.818 34.3134 111.403 34.4157 111.99 34.4022C112.386 34.4054 112.78 34.3509 113.159 34.2405C113.501 34.1415 113.829 33.9972 114.132 33.8114C114.408 33.6427 114.659 33.4368 114.878 33.1996C115.075 32.9886 115.24 32.7496 115.366 32.4905H115.409C115.409 32.7775 115.416 33.0575 115.43 33.3305C115.445 33.6035 115.452 33.8756 115.452 34.1467H117.053C117.053 33.8168 117.039 33.4516 117.009 33.0512C116.98 32.6508 116.967 32.2196 116.97 31.7576Z" fill="white"/>
<path d="M135.208 26.2927C135.096 25.8064 134.874 25.3517 134.559 24.9627C134.241 24.5863 133.832 24.2971 133.369 24.1227C132.787 23.9141 132.17 23.8158 131.552 23.8329C130.88 23.8038 130.215 23.9799 129.648 24.3376C129.122 24.7123 128.68 25.1914 128.35 25.7446C128.264 25.5724 128.152 25.3755 128.014 25.1538C127.861 24.9144 127.667 24.7036 127.441 24.5308C127.163 24.321 126.854 24.1557 126.524 24.0408C126.082 23.8931 125.616 23.8239 125.15 23.8364C124.755 23.8332 124.361 23.8877 123.982 23.9981C123.639 24.0971 123.312 24.2414 123.008 24.4272C122.732 24.5962 122.481 24.802 122.262 25.039C122.065 25.25 121.901 25.489 121.775 25.7481H121.732C121.732 25.4611 121.724 25.1825 121.71 24.9081C121.696 24.6337 121.688 24.3642 121.688 24.0919H120.088C120.088 24.4218 120.102 24.787 120.131 25.1874C120.159 25.5878 120.174 26.0174 120.174 26.4761V34.1418H121.863V29.246C121.857 28.7175 121.919 28.1904 122.047 27.6773C122.154 27.2374 122.346 26.8221 122.611 26.4537C122.862 26.1108 123.197 25.8373 123.584 25.6592C124.03 25.4627 124.514 25.367 125.002 25.3792C125.29 25.3547 125.581 25.4066 125.843 25.5295C126.105 25.6525 126.33 25.8421 126.494 26.0792C126.856 26.8157 127.013 27.6351 126.949 28.4522V34.1432H128.633V28.343C128.628 27.9297 128.698 27.5188 128.839 27.1299C128.964 26.7851 129.155 26.4679 129.403 26.1961C129.637 25.9416 129.92 25.737 130.236 25.5948C130.555 25.4513 130.902 25.378 131.253 25.3799C131.67 25.3649 132.084 25.4456 132.464 25.6158C132.764 25.7595 133.024 25.9736 133.221 26.2395C133.411 26.5027 133.544 26.8024 133.611 27.1194C133.683 27.4511 133.719 27.7895 133.719 28.1288V34.1418H135.403V28.0427C135.409 27.4537 135.344 26.8661 135.208 26.2927Z" fill="white"/>
</g>
<defs>
<clipPath id="clip0_1101_2457">
<rect width="135.403" height="56" fill="white"/>
</clipPath>
</defs>
</svg>
